<svg width="130" height="48" viewBox="0 0 130 48" fill="none" xmlns="http://www.w3.org/2000/svg">
<path d="M44.3522 41.7972C43.7808 42.541 43.1753 43.2303 42.4746 43.8471C40.9848 45.1654 39.1821 46.012 37.2093 46.6046C36.2978 46.8767 35.3726 46.9976 34.4134 46.9976C27.148 47.0037 19.8827 47.0037 12.6106 47.0339C10.8691 47.0399 9.24322 46.7074 7.65818 46.0906C5.27722 45.1654 3.39286 43.7141 2.0187 41.7609C1.39285 40.872 1.08672 39.8561 0.698967 38.8704C0.386039 38.0722 0.284 37.2438 0.284 36.4093C0.270393 33.5672 0.27721 30.7251 0.27721 27.8829C0.270419 18.7338 0.263604 9.16309 0.25 0.00787264C0.25 0.00787264 0.25 0.00603756 0.739798 0.00603756C14.563 0.00603756 28.7829 0.00603614 42.6061 0C42.6061 0 42.6175 0.0604703 42.6038 0.356776C42.5766 1.16103 42.5834 1.97133 42.6038 2.77559C42.6106 3.03561 42.5928 3.12632 42.5928 3.12632C36.967 3.12028 30.9847 3.12632 25.3588 3.12028C25.0323 3.12028 24.9847 3.1212 24.9847 3.1212C24.9915 13.8668 24.9847 25.2969 24.9915 36.0425C24.9915 36.0425 24.9302 36.0705 24.5901 36.0645C23.6853 36.0403 22.7738 36.0464 21.869 36.0645C21.5765 36.0705 21.4676 36.0577 21.4676 36.0577C21.4812 32.9314 21.4948 29.4793 21.4744 26.353C21.4268 18.7035 21.4676 10.7849 21.4608 3.1354C21.4608 3.1354 21.4064 3.12628 21.1479 3.12628C15.4812 3.13232 9.80771 3.13232 4.14102 3.12628C3.90292 3.12628 3.82129 3.10907 3.82129 3.10907C3.82808 14.2659 3.8145 25.712 3.8553 36.8688C3.86209 37.933 4.31789 38.955 4.93694 39.9044C6.41994 42.1962 8.67165 43.4419 11.556 43.8773C11.6921 43.8954 11.8281 43.8954 11.9642 43.8954C19.2771 43.8954 26.5901 43.8894 33.903 43.9014C35.6105 43.9075 37.1479 43.454 38.5629 42.6437C40.3588 41.6096 41.5221 40.1281 42.2228 38.3503C42.4541 37.7577 42.4813 37.1106 42.5425 36.4757C42.5833 36.0342 42.589 36.0342 42.589 36.0342C43.5278 36.0342 45.2082 36.0403 46.147 36.0282C46.147 36.0282 46.1548 36.0705 46.1752 36.2701C46.3113 37.9149 46.8487 39.4387 47.9711 40.7751C49.4269 42.5167 51.3997 43.4963 53.7943 43.8349C54.1548 43.8833 54.5154 43.8894 54.8759 43.8894C61.597 43.8894 68.3249 43.9075 75.0461 43.8833C76.4678 43.8773 77.7604 43.3935 78.9508 42.7283C80.876 41.6399 82.1889 40.11 82.8284 38.1628C83.1345 37.2376 83.1413 36.258 83.1617 35.2905C83.1957 33.7062 83.0937 31.9875 83.0801 30.4092C83.0801 30.4092 82.9917 30.3138 82.8896 30.217L63.1957 12.7108C63.0188 12.5536 62.8487 12.3964 62.6651 12.2392C62.5426 12.1364 62.487 12.0668 62.487 12.0668C63.1945 11.4682 64.3651 10.4819 65.1066 9.91344C65.1066 9.91344 65.1276 9.93527 65.3589 10.1409C68.2025 12.6867 71.0528 15.2264 73.9032 17.7662C78.0801 21.4911 82.257 25.2161 86.4475 28.935C86.6243 29.0923 86.6924 29.1542 86.6924 29.1542C86.6856 31.4823 86.74 34.1113 86.672 36.4394C86.6176 38.2475 86.0529 39.9769 85.0529 41.5492C83.774 43.5568 81.8352 44.9718 79.5291 45.9998C78.0053 46.6771 76.393 46.9915 74.6991 46.9975C68.0188 47.0096 61.3453 47.0096 54.665 47.0399C53.4542 47.0459 52.3113 46.8282 51.1888 46.5077C49.2773 45.9695 47.6446 44.996 46.1888 43.7987C45.6242 43.333 45.2024 42.7283 44.7126 42.1841C44.5902 42.0632 44.4814 41.9363 44.3522 41.7972Z" fill="white"/>
<path d="M84.9374 5.27916C85.5701 4.54142 86.1755 3.82182 86.8966 3.19293C88.7538 1.56628 90.951 0.538282 93.5497 0.21779C94.5157 0.0968493 95.4817 0.0363764 96.4613 0.0363764C103.142 0.0424125 109.815 0.0545064 116.495 0.0303388C119.312 0.0243027 121.863 0.743893 124.08 2.24356C126.611 3.95487 128.182 6.2467 128.802 9.03438C128.958 9.74793 129.006 10.4675 129.006 11.1932C129.006 16.9499 129.006 22.7007 129.012 28.4575C129.012 29.3343 129.012 30.4846 129.04 31.3615C129.04 31.3615 128.972 31.3782 128.706 31.3782C121.904 31.3722 115.101 31.3722 108.298 31.3722C107.849 31.3722 107.849 31.3695 107.849 31.3695C107.849 36.3462 107.849 41.7247 107.856 46.7014C107.856 46.9796 107.774 47.04 107.468 47.04C100.652 47.034 93.4828 47.034 86.6664 47.04C86.6664 47.04 86.6654 46.9977 86.6721 46.7377C86.6925 45.9032 86.6925 45.0627 86.6721 44.2282C86.6653 43.9863 86.6698 43.9379 86.6698 43.9379C92.3024 43.9439 98.2774 43.9379 103.91 43.95C104.25 43.95 104.305 43.8653 104.305 43.5872C104.298 32.8355 104.298 22.0839 104.291 11.3262C104.291 11.0541 104.299 10.9876 104.299 10.9876C105.237 11.0057 106.889 11.0118 107.828 10.9876C107.828 10.9876 107.849 11.0723 107.849 11.3202C107.842 16.823 107.842 22.7169 107.842 28.2197C107.842 28.2197 107.788 28.2216 108.298 28.2216C113.91 28.2216 119.522 28.2216 125.135 28.2276C125.434 28.2276 125.529 28.2229 125.529 28.2229C125.516 24.2742 125.529 19.9855 125.502 16.0368C125.488 14.392 125.529 12.7532 125.475 11.1084C125.393 8.67752 124.448 6.55501 122.305 4.97674C121.332 4.25714 120.162 3.79151 118.951 3.43474C118.135 3.19286 117.277 3.13843 116.441 3.13843C109.522 3.1203 102.611 3.1082 95.6924 3.13843C93.0393 3.15053 90.7468 4.00316 88.944 5.78099C87.5971 7.10529 86.8352 8.65938 86.7331 10.4553C86.6991 10.9996 86.6655 10.9996 86.6655 10.9996C85.8015 10.9996 83.9657 10.9815 83.1018 11.0056C83.1018 11.0056 83.1073 10.921 83.0869 10.6488C82.9916 9.28826 82.5835 8.00024 81.7603 6.83921C80.4134 4.92835 78.4474 3.8036 76.0188 3.29565C75.3521 3.15657 74.6515 3.12633 73.9576 3.12633C67.1344 3.12633 60.3045 3.11423 53.4813 3.12633C49.4881 3.13843 46.2024 5.18232 44.8486 8.50819C44.5765 9.17337 44.5153 9.86273 44.4609 10.546C44.3112 12.5053 44.3928 14.6195 44.3792 16.5848C44.3792 16.5848 44.4745 16.6717 44.5765 16.7624C46.4949 18.4798 48.4133 20.1911 50.3316 21.9084C52.9847 24.2789 55.6378 26.6493 58.2908 29.0258C60.4473 30.9548 62.8215 33.0737 64.9847 34.9967C64.9847 34.9967 64.9439 35.0486 64.7603 35.2119C64.1344 35.7622 63.563 36.3669 62.8759 36.8688C62.4813 37.153 62.4991 37.115 62.4991 37.115C57.0093 32.2351 51.1412 27.0666 45.6581 22.1866C44.1275 20.8321 42.6105 19.4775 41.0867 18.123C40.9575 18.0081 40.8962 17.9405 40.8962 17.9405C40.8962 15.5399 40.835 12.9346 40.9098 10.5339C40.9711 8.62913 41.5697 6.82711 42.7126 5.20651C44.0119 3.35611 45.8418 2.03786 48.0255 1.06429C49.352 0.471678 50.7738 0.253983 52.2296 0.0967589C52.8418 0.030242 53.4473 0.0362923 54.0595 0.0362923C60.7126 0.0362923 67.3725 0.0423271 74.0256 0.0302548C78.5902 0.0242186 82.0937 1.78389 84.7399 5.02511C84.7943 5.09767 84.8558 5.17032 84.9374 5.27916Z" fill="white"/>
</svg>
